<svg width="532" height="404" viewBox="0 0 532 404" fill="none" xmlns="http://www.w3.org/2000/svg">
<path fill-rule="evenodd" clip-rule="evenodd" d="M218.204 166.369C218.135 166.466 218.066 166.562 217.996 166.658C217.991 166.664 217.988 166.67 217.983 166.676C217.946 166.727 217.91 166.778 217.873 166.83C217.762 166.982 217.653 167.135 217.546 167.291L218.204 166.369Z" fill="black"/>
<path fill-rule="evenodd" clip-rule="evenodd" d="M196.972 299.387L196.661 299.164C196.765 299.238 196.868 299.314 196.972 299.387Z" fill="#1B9AAA"/>
<path fill-rule="evenodd" clip-rule="evenodd" d="M217.873 166.83C217.762 166.982 217.653 167.135 217.546 167.291L218.204 166.369C218.135 166.466 218.066 166.562 217.996 166.658L217.983 166.676C217.946 166.727 217.91 166.778 217.873 166.83ZM231.086 250.952C231.171 250.835 231.255 250.717 231.339 250.6C231.423 250.482 231.507 250.364 231.591 250.245L231.086 250.952Z" fill="#1B9AAA"/>
<path fill-rule="evenodd" clip-rule="evenodd" d="M363.395 270.913L362.959 271.524L362.96 271.526C363.106 271.322 363.251 271.118 363.395 270.913Z" fill="#1B9AAA"/>
<g clip-path="url(#paint0_diamond_386_245_clip_path)" data-figma-skip-parse="true"><g transform="matrix(-0.169003 0.236674 -0.145415 -0.104235 266.017 202.036)"><rect x="0" y="0" width="211.467" height="676.724" fill="url(#paint0_diamond_386_245)" opacity="1" shape-rendering="crispEdges"/><rect x="0" y="0" width="211.467" height="676.724" transform="scale(1 -1)" fill="url(#paint0_diamond_386_245)" opacity="1" shape-rendering="crispEdges"/><rect x="0" y="0" width="211.467" height="676.724" transform="scale(-1 1)" fill="url(#paint0_diamond_386_245)" opacity="1" shape-rendering="crispEdges"/><rect x="0" y="0" width="211.467" height="676.724" transform="scale(-1)" fill="url(#paint0_diamond_386_245)" opacity="1" shape-rendering="crispEdges"/></g></g><path fill-rule="evenodd" clip-rule="evenodd" d="M397.64 222.961C397.723 222.846 397.804 222.729 397.887 222.612L397.388 223.311C397.472 223.195 397.556 223.079 397.64 222.961Z" data-figma-gradient-fill="{&#34;type&#34;:&#34;GRADIENT_DIAMOND&#34;,&#34;stops&#34;:[{&#34;color&#34;:{&#34;r&#34;:0.28627452254295349,&#34;g&#34;:0.32549020648002625,&#34;b&#34;:0.36862745881080627,&#34;a&#34;:1.0},&#34;position&#34;:0.73557692766189575},{&#34;color&#34;:{&#34;r&#34;:0.10588235408067703,&#34;g&#34;:0.60392159223556519,&#34;b&#34;:0.66666668653488159,&#34;a&#34;:1.0},&#34;position&#34;:1.0}],&#34;stopsVar&#34;:[{&#34;color&#34;:{&#34;r&#34;:0.28627452254295349,&#34;g&#34;:0.32549020648002625,&#34;b&#34;:0.36862745881080627,&#34;a&#34;:1.0},&#34;position&#34;:0.73557692766189575},{&#34;color&#34;:{&#34;r&#34;:0.10588235408067703,&#34;g&#34;:0.60392159223556519,&#34;b&#34;:0.66666668653488159,&#34;a&#34;:1.0},&#34;position&#34;:1.0}],&#34;transform&#34;:{&#34;m00&#34;:-338.00674438476562,&#34;m01&#34;:-290.82977294921875,&#34;m02&#34;:580.43560791015625,&#34;m10&#34;:473.3483886718750,&#34;m11&#34;:-208.46945190429688,&#34;m12&#34;:69.596656799316406},&#34;opacity&#34;:1.0,&#34;blendMode&#34;:&#34;NORMAL&#34;,&#34;visible&#34;:true}"/>
<g clip-path="url(#paint1_diamond_386_245_clip_path)" data-figma-skip-parse="true"><g transform="matrix(-0.169003 0.236674 -0.145415 -0.104235 266.017 202.036)"><rect x="0" y="0" width="390.29" height="676.121" fill="url(#paint1_diamond_386_245)" opacity="1" shape-rendering="crispEdges"/><rect x="0" y="0" width="390.29" height="676.121" transform="scale(1 -1)" fill="url(#paint1_diamond_386_245)" opacity="1" shape-rendering="crispEdges"/><rect x="0" y="0" width="390.29" height="676.121" transform="scale(-1 1)" fill="url(#paint1_diamond_386_245)" opacity="1" shape-rendering="crispEdges"/><rect x="0" y="0" width="390.29" height="676.121" transform="scale(-1)" fill="url(#paint1_diamond_386_245)" opacity="1" shape-rendering="crispEdges"/></g></g><path fill-rule="evenodd" clip-rule="evenodd" d="M427.745 180.8C427.806 180.715 427.867 180.63 427.928 180.544C427.989 180.459 428.049 180.375 428.11 180.29L427.928 180.544L427.745 180.8Z" data-figma-gradient-fill="{&#34;type&#34;:&#34;GRADIENT_DIAMOND&#34;,&#34;stops&#34;:[{&#34;color&#34;:{&#34;r&#34;:0.28627452254295349,&#34;g&#34;:0.32549020648002625,&#34;b&#34;:0.36862745881080627,&#34;a&#34;:1.0},&#34;position&#34;:0.73557692766189575},{&#34;color&#34;:{&#34;r&#34;:0.10588235408067703,&#34;g&#34;:0.60392159223556519,&#34;b&#34;:0.66666668653488159,&#34;a&#34;:1.0},&#34;position&#34;:1.0}],&#34;stopsVar&#34;:[{&#34;color&#34;:{&#34;r&#34;:0.28627452254295349,&#34;g&#34;:0.32549020648002625,&#34;b&#34;:0.36862745881080627,&#34;a&#34;:1.0},&#34;position&#34;:0.73557692766189575},{&#34;color&#34;:{&#34;r&#34;:0.10588235408067703,&#34;g&#34;:0.60392159223556519,&#34;b&#34;:0.66666668653488159,&#34;a&#34;:1.0},&#34;position&#34;:1.0}],&#34;transform&#34;:{&#34;m00&#34;:-338.00677490234375,&#34;m01&#34;:-290.82977294921875,&#34;m02&#34;:580.4357910156250,&#34;m10&#34;:473.34835815429688,&#34;m11&#34;:-208.46942138671875,&#34;m12&#34;:69.596412658691406},&#34;opacity&#34;:1.0,&#34;blendMode&#34;:&#34;NORMAL&#34;,&#34;visible&#34;:true}"/>
<path fill-rule="evenodd" clip-rule="evenodd" d="M362.52 272.14C362.667 271.936 362.814 271.73 362.96 271.526L362.959 271.524L362.52 272.14Z" fill="#1B9AAA"/>
<g clip-path="url(#paint2_diamond_386_245_clip_path)" data-figma-skip-parse="true"><g transform="matrix(-0.174785 0.243231 -0.150389 -0.107122 260.349 202.801)"><rect x="0" y="0" width="413.967" height="672.273" fill="url(#paint2_diamond_386_245)" opacity="1" shape-rendering="crispEdges"/><rect x="0" y="0" width="413.967" height="672.273" transform="scale(1 -1)" fill="url(#paint2_diamond_386_245)" opacity="1" shape-rendering="crispEdges"/><rect x="0" y="0" width="413.967" height="672.273" transform="scale(-1 1)" fill="url(#paint2_diamond_386_245)" opacity="1" shape-rendering="crispEdges"/><rect x="0" y="0" width="413.967" height="672.273" transform="scale(-1)" fill="url(#paint2_diamond_386_245)" opacity="1" shape-rendering="crispEdges"/></g></g><path fill-rule="evenodd" clip-rule="evenodd" d="M431.785 174.399L431.742 174.478L431.701 174.551C431.714 174.527 431.729 174.502 431.742 174.478C431.756 174.452 431.77 174.426 431.785 174.399Z" data-figma-gradient-fill="{&#34;type&#34;:&#34;GRADIENT_DIAMOND&#34;,&#34;stops&#34;:[{&#34;color&#34;:{&#34;r&#34;:0.28627452254295349,&#34;g&#34;:0.32549020648002625,&#34;b&#34;:0.36862745881080627,&#34;a&#34;:1.0},&#34;position&#34;:0.73557692766189575},{&#34;color&#34;:{&#34;r&#34;:0.10588235408067703,&#34;g&#34;:0.60392159223556519,&#34;b&#34;:0.66666668653488159,&#34;a&#34;:1.0},&#34;position&#34;:1.0}],&#34;stopsVar&#34;:[{&#34;color&#34;:{&#34;r&#34;:0.28627452254295349,&#34;g&#34;:0.32549020648002625,&#34;b&#34;:0.36862745881080627,&#34;a&#34;:1.0},&#34;position&#34;:0.73557692766189575},{&#34;color&#34;:{&#34;r&#34;:0.10588235408067703,&#34;g&#34;:0.60392159223556519,&#34;b&#34;:0.66666668653488159,&#34;a&#34;:1.0},&#34;position&#34;:1.0}],&#34;transform&#34;:{&#34;m00&#34;:-349.56961059570312,&#34;m01&#34;:-300.77874755859375,&#34;m02&#34;:585.52355957031250,&#34;m10&#34;:486.4621582031250,&#34;m11&#34;:-214.24496459960938,&#34;m12&#34;:66.692802429199219},&#34;opacity&#34;:1.0,&#34;blendMode&#34;:&#34;NORMAL&#34;,&#34;visible&#34;:true}"/>
<g clip-path="url(#paint3_diamond_386_245_clip_path)" data-figma-skip-parse="true"><g transform="matrix(-0.174785 0.243231 -0.150389 -0.107122 271.595 199.525)"><rect x="0" y="0" width="584.902" height="454.816" fill="url(#paint3_diamond_386_245)" opacity="1" shape-rendering="crispEdges"/><rect x="0" y="0" width="584.902" height="454.816" transform="scale(1 -1)" fill="url(#paint3_diamond_386_245)" opacity="1" shape-rendering="crispEdges"/><rect x="0" y="0" width="584.902" height="454.816" transform="scale(-1 1)" fill="url(#paint3_diamond_386_245)" opacity="1" shape-rendering="crispEdges"/><rect x="0" y="0" width="584.902" height="454.816" transform="scale(-1)" fill="url(#paint3_diamond_386_245)" opacity="1" shape-rendering="crispEdges"/></g></g><path fill-rule="evenodd" clip-rule="evenodd" d="M103.057 292.789L102.973 292.666C103.001 292.707 103.029 292.748 103.057 292.789Z" data-figma-gradient-fill="{&#34;type&#34;:&#34;GRADIENT_DIAMOND&#34;,&#34;stops&#34;:[{&#34;color&#34;:{&#34;r&#34;:0.28627452254295349,&#34;g&#34;:0.32549020648002625,&#34;b&#34;:0.36862745881080627,&#34;a&#34;:1.0},&#34;position&#34;:0.73557692766189575},{&#34;color&#34;:{&#34;r&#34;:0.10588235408067703,&#34;g&#34;:0.60392159223556519,&#34;b&#34;:0.66666668653488159,&#34;a&#34;:1.0},&#34;position&#34;:1.0}],&#34;stopsVar&#34;:[{&#34;color&#34;:{&#34;r&#34;:0.28627452254295349,&#34;g&#34;:0.32549020648002625,&#34;b&#34;:0.36862745881080627,&#34;a&#34;:1.0},&#34;position&#34;:0.73557692766189575},{&#34;color&#34;:{&#34;r&#34;:0.10588235408067703,&#34;g&#34;:0.60392159223556519,&#34;b&#34;:0.66666668653488159,&#34;a&#34;:1.0},&#34;position&#34;:1.0}],&#34;transform&#34;:{&#34;m00&#34;:-349.56961059570312,&#34;m01&#34;:-300.77874755859375,&#34;m02&#34;:596.76916503906250,&#34;m10&#34;:486.4621582031250,&#34;m11&#34;:-214.24496459960938,&#34;m12&#34;:63.416526794433594},&#34;opacity&#34;:1.0,&#34;blendMode&#34;:&#34;NORMAL&#34;,&#34;visible&#34;:true}"/>
<path fill-rule="evenodd" clip-rule="evenodd" d="M334.991 104.633L335.377 104.909C335.247 104.817 335.119 104.725 334.991 104.633Z" fill="black"/>
<g clip-path="url(#paint4_diamond_386_245_clip_path)" data-figma-skip-parse="true"><g transform="matrix(-0.169003 0.236674 -0.145415 -0.104235 266.017 202.036)"><rect x="0" y="0" width="646.939" height="1022.61" fill="url(#paint4_diamond_386_245)" opacity="1" shape-rendering="crispEdges"/><rect x="0" y="0" width="646.939" height="1022.61" transform="scale(1 -1)" fill="url(#paint4_diamond_386_245)" opacity="1" shape-rendering="crispEdges"/><rect x="0" y="0" width="646.939" height="1022.61" transform="scale(-1 1)" fill="url(#paint4_diamond_386_245)" opacity="1" shape-rendering="crispEdges"/><rect x="0" y="0" width="646.939" height="1022.61" transform="scale(-1)" fill="url(#paint4_diamond_386_245)" opacity="1" shape-rendering="crispEdges"/></g></g><path d="M96.3363 279.876C97.1533 282.062 98.0999 284.207 99.1741 286.295C100.301 288.484 101.568 290.614 102.973 292.666L103.054 292.786C103.087 292.833 103.12 292.88 103.153 292.928C103.195 292.989 103.237 293.049 103.279 293.109C103.329 293.181 103.379 293.253 103.43 293.324C107.18 298.65 111.872 303.445 117.461 307.452L148.189 264.419L148.627 263.805L157.468 251.425C155.495 247.064 153.791 242.596 152.36 238.05C148.432 225.574 146.559 212.507 146.836 199.409C147.085 187.565 149.091 175.694 152.922 164.209C156.602 153.176 161.966 142.501 169.074 132.546L134.396 181.111L103.668 224.142C102.482 225.802 101.394 227.503 100.401 229.235C100.276 229.456 100.151 229.677 100.028 229.897C92.7887 242.923 90.9036 257.766 93.9037 271.591C93.9751 271.921 94.0495 272.249 94.1266 272.578C94.7069 275.051 95.4444 277.489 96.3363 279.876Z" data-figma-gradient-fill="{&#34;type&#34;:&#34;GRADIENT_DIAMOND&#34;,&#34;stops&#34;:[{&#34;color&#34;:{&#34;r&#34;:0.28627452254295349,&#34;g&#34;:0.32549020648002625,&#34;b&#34;:0.36862745881080627,&#34;a&#34;:1.0},&#34;position&#34;:0.73557692766189575},{&#34;color&#34;:{&#34;r&#34;:0.10588235408067703,&#34;g&#34;:0.60392159223556519,&#34;b&#34;:0.66666668653488159,&#34;a&#34;:1.0},&#34;position&#34;:1.0}],&#34;stopsVar&#34;:[{&#34;color&#34;:{&#34;r&#34;:0.28627452254295349,&#34;g&#34;:0.32549020648002625,&#34;b&#34;:0.36862745881080627,&#34;a&#34;:1.0},&#34;position&#34;:0.73557692766189575},{&#34;color&#34;:{&#34;r&#34;:0.10588235408067703,&#34;g&#34;:0.60392159223556519,&#34;b&#34;:0.66666668653488159,&#34;a&#34;:1.0},&#34;position&#34;:1.0}],&#34;transform&#34;:{&#34;m00&#34;:-338.00677490234375,&#34;m01&#34;:-290.82980346679688,&#34;m02&#34;:580.43566894531250,&#34;m10&#34;:473.3483886718750,&#34;m11&#34;:-208.46946716308594,&#34;m12&#34;:69.596488952636719},&#34;opacity&#34;:1.0,&#34;blendMode&#34;:&#34;NORMAL&#34;,&#34;visible&#34;:true}"/>
<g clip-path="url(#paint5_diamond_386_245_clip_path)" data-figma-skip-parse="true"><g transform="matrix(-0.17321 0.241301 -0.149035 -0.106272 261.992 202.456)"><rect x="0" y="0" width="389.111" height="675.121" fill="url(#paint5_diamond_386_245)" opacity="1" shape-rendering="crispEdges"/><rect x="0" y="0" width="389.111" height="675.121" transform="scale(1 -1)" fill="url(#paint5_diamond_386_245)" opacity="1" shape-rendering="crispEdges"/><rect x="0" y="0" width="389.111" height="675.121" transform="scale(-1 1)" fill="url(#paint5_diamond_386_245)" opacity="1" shape-rendering="crispEdges"/><rect x="0" y="0" width="389.111" height="675.121" transform="scale(-1)" fill="url(#paint5_diamond_386_245)" opacity="1" shape-rendering="crispEdges"/></g></g><path fill-rule="evenodd" clip-rule="evenodd" d="M427.933 180.544L427.745 180.805C427.808 180.718 427.87 180.631 427.933 180.544Z" data-figma-gradient-fill="{&#34;type&#34;:&#34;GRADIENT_DIAMOND&#34;,&#34;stops&#34;:[{&#34;color&#34;:{&#34;r&#34;:0.28627452254295349,&#34;g&#34;:0.32549020648002625,&#34;b&#34;:0.36862745881080627,&#34;a&#34;:1.0},&#34;position&#34;:0.73557692766189575},{&#34;color&#34;:{&#34;r&#34;:0.10588235408067703,&#34;g&#34;:0.60392159223556519,&#34;b&#34;:0.66666668653488159,&#34;a&#34;:1.0},&#34;position&#34;:1.0}],&#34;stopsVar&#34;:[{&#34;color&#34;:{&#34;r&#34;:0.28627452254295349,&#34;g&#34;:0.32549020648002625,&#34;b&#34;:0.36862745881080627,&#34;a&#34;:1.0},&#34;position&#34;:0.73557692766189575},{&#34;color&#34;:{&#34;r&#34;:0.10588235408067703,&#34;g&#34;:0.60392159223556519,&#34;b&#34;:0.66666668653488159,&#34;a&#34;:1.0},&#34;position&#34;:1.0}],&#34;transform&#34;:{&#34;m00&#34;:-346.42031860351562,&#34;m01&#34;:-298.06903076171875,&#34;m02&#34;:584.23651123046875,&#34;m10&#34;:482.60128784179688,&#34;m11&#34;:-212.54457092285156,&#34;m12&#34;:67.427680969238281},&#34;opacity&#34;:1.0,&#34;blendMode&#34;:&#34;NORMAL&#34;,&#34;visible&#34;:true}"/>
<g clip-path="url(#paint6_diamond_386_245_clip_path)" data-figma-skip-parse="true"><g transform="matrix(-0.169003 0.236674 -0.145415 -0.104235 266.018 202.036)"><rect x="0" y="0" width="644.342" height="1020.62" fill="url(#paint6_diamond_386_245)" opacity="1" shape-rendering="crispEdges"/><rect x="0" y="0" width="644.342" height="1020.62" transform="scale(1 -1)" fill="url(#paint6_diamond_386_245)" opacity="1" shape-rendering="crispEdges"/><rect x="0" y="0" width="644.342" height="1020.62" transform="scale(-1 1)" fill="url(#paint6_diamond_386_245)" opacity="1" shape-rendering="crispEdges"/><rect x="0" y="0" width="644.342" height="1020.62" transform="scale(-1)" fill="url(#paint6_diamond_386_245)" opacity="1" shape-rendering="crispEdges"/></g></g><path fill-rule="evenodd" clip-rule="evenodd" d="M363.395 270.913C363.252 271.118 363.107 271.322 362.96 271.526L397.64 222.961L397.641 222.96L427.745 180.801L428.11 180.29C429.374 178.499 430.527 176.663 431.568 174.789L431.879 175.011L432.317 174.397L431.934 174.121C438.87 161.258 440.642 146.685 437.692 133.095C437.621 132.766 437.546 132.437 437.469 132.108C436.82 129.342 435.974 126.62 434.936 123.965C434.094 121.809 433.124 119.698 432.03 117.643C431.003 115.717 429.867 113.839 428.623 112.021C428.473 111.8 428.321 111.581 428.166 111.362C424.416 106.037 419.724 101.242 414.135 97.2354L383.847 139.652L383.407 140.267L374.568 152.646C382.033 169.157 385.652 187.175 385.185 205.238C384.885 216.891 382.881 228.563 379.113 239.862C375.508 250.669 370.289 261.134 363.395 270.913ZM397.64 222.961C397.556 223.079 397.472 223.195 397.388 223.31L397.887 222.612C397.805 222.729 397.723 222.846 397.64 222.961Z" data-figma-gradient-fill="{&#34;type&#34;:&#34;GRADIENT_DIAMOND&#34;,&#34;stops&#34;:[{&#34;color&#34;:{&#34;r&#34;:0.28627452254295349,&#34;g&#34;:0.32549020648002625,&#34;b&#34;:0.36862745881080627,&#34;a&#34;:1.0},&#34;position&#34;:0.73557692766189575},{&#34;color&#34;:{&#34;r&#34;:0.10588235408067703,&#34;g&#34;:0.60392159223556519,&#34;b&#34;:0.66666668653488159,&#34;a&#34;:1.0},&#34;position&#34;:1.0}],&#34;stopsVar&#34;:[{&#34;color&#34;:{&#34;r&#34;:0.28627452254295349,&#34;g&#34;:0.32549020648002625,&#34;b&#34;:0.36862745881080627,&#34;a&#34;:1.0},&#34;position&#34;:0.73557692766189575},{&#34;color&#34;:{&#34;r&#34;:0.10588235408067703,&#34;g&#34;:0.60392159223556519,&#34;b&#34;:0.66666668653488159,&#34;a&#34;:1.0},&#34;position&#34;:1.0}],&#34;transform&#34;:{&#34;m00&#34;:-338.00680541992188,&#34;m01&#34;:-290.82980346679688,&#34;m02&#34;:580.43591308593750,&#34;m10&#34;:473.34835815429688,&#34;m11&#34;:-208.46943664550781,&#34;m12&#34;:69.596588134765625},&#34;opacity&#34;:1.0,&#34;blendMode&#34;:&#34;NORMAL&#34;,&#34;visible&#34;:true}"/>
<path d="M334.991 104.633L335.375 104.907L335.759 105.184C345.53 112.245 353.919 120.517 360.866 129.649C366.336 136.84 370.912 144.562 374.568 152.646L344.778 194.364L314.496 236.772C314.601 236.619 314.557 236.358 314.513 236.099C314.468 235.836 314.425 235.573 314.534 235.419C333.492 208.87 327.477 171.993 301.139 152.86L301.131 152.855C304.47 148.055 307.008 142.929 308.772 137.64C314.217 121.316 312.289 103.433 303.772 88.7241C308.653 90.3587 313.465 92.3247 318.175 94.6277C323.953 97.4527 329.578 100.785 334.991 104.633Z" fill="#1B9AAA" fill-opacity="0.39"/>
<path fill-rule="evenodd" clip-rule="evenodd" d="M217.996 166.658C218.066 166.562 218.135 166.465 218.204 166.369C237.235 139.718 274.228 133.569 300.828 152.637C300.872 152.668 300.916 152.699 300.959 152.731C301.017 152.772 301.073 152.813 301.131 152.855C304.47 148.055 307.008 142.929 308.772 137.64C314.217 121.316 312.289 103.433 303.772 88.7241C297.068 86.4796 290.234 84.8605 283.35 83.8528C281.445 83.5739 279.535 83.3418 277.624 83.1563C276.604 83.0573 275.584 82.9716 274.562 82.899C255.778 81.5647 236.886 84.7044 219.538 92.044C210.444 95.8909 201.776 100.892 193.769 107.006C184.536 114.058 176.183 122.592 169.074 132.546C161.966 142.501 156.602 153.176 152.922 164.209C149.091 175.694 147.085 187.565 146.836 199.409C146.56 212.507 148.432 225.573 152.361 238.05C153.791 242.596 155.495 247.064 157.468 251.425C161.123 259.51 165.699 267.233 171.17 274.422C178.134 283.577 186.546 291.868 196.35 298.941L196.661 299.164L196.97 299.385C206.817 306.398 217.366 311.699 228.263 315.347C236.821 318.213 245.595 320.059 254.411 320.916C259.168 321.377 263.938 321.55 268.694 321.439C293.554 320.862 318.025 312.523 338.266 297.066C347.309 290.159 355.508 281.831 362.52 272.14L362.959 271.524L363.395 270.913C370.288 261.133 375.508 250.669 379.112 239.862C382.881 228.563 384.885 216.89 385.185 205.237C385.652 187.175 382.033 169.156 374.568 152.646L344.778 194.364L314.496 236.772L314.489 236.78C295.349 262.546 258.499 267.95 232.233 249.381C231.93 249.782 231.632 250.188 231.339 250.6C231.255 250.717 231.171 250.835 231.086 250.951L231.591 250.245C231.797 249.951 232.002 249.656 232.202 249.359C232.104 249.29 232.008 249.221 231.91 249.151C205.617 230.303 199.308 193.868 217.546 167.291C217.653 167.135 217.762 166.982 217.873 166.83C217.909 166.778 217.946 166.727 217.983 166.676L217.996 166.658Z" fill="#1B9AAA"/>
<defs>
<clipPath id="paint0_diamond_386_245_clip_path"><path fill-rule="evenodd" clip-rule="evenodd" d="M397.64 222.961C397.723 222.846 397.804 222.729 397.887 222.612L397.388 223.311C397.472 223.195 397.556 223.079 397.64 222.961Z"/></clipPath><clipPath id="paint1_diamond_386_245_clip_path"><path fill-rule="evenodd" clip-rule="evenodd" d="M427.745 180.8C427.806 180.715 427.867 180.63 427.928 180.544C427.989 180.459 428.049 180.375 428.11 180.29L427.928 180.544L427.745 180.8Z"/></clipPath><clipPath id="paint2_diamond_386_245_clip_path"><path fill-rule="evenodd" clip-rule="evenodd" d="M431.785 174.399L431.742 174.478L431.701 174.551C431.714 174.527 431.729 174.502 431.742 174.478C431.756 174.452 431.77 174.426 431.785 174.399Z"/></clipPath><clipPath id="paint3_diamond_386_245_clip_path"><path fill-rule="evenodd" clip-rule="evenodd" d="M103.057 292.789L102.973 292.666C103.001 292.707 103.029 292.748 103.057 292.789Z"/></clipPath><clipPath id="paint4_diamond_386_245_clip_path"><path d="M96.3363 279.876C97.1533 282.062 98.0999 284.207 99.1741 286.295C100.301 288.484 101.568 290.614 102.973 292.666L103.054 292.786C103.087 292.833 103.12 292.88 103.153 292.928C103.195 292.989 103.237 293.049 103.279 293.109C103.329 293.181 103.379 293.253 103.43 293.324C107.18 298.65 111.872 303.445 117.461 307.452L148.189 264.419L148.627 263.805L157.468 251.425C155.495 247.064 153.791 242.596 152.36 238.05C148.432 225.574 146.559 212.507 146.836 199.409C147.085 187.565 149.091 175.694 152.922 164.209C156.602 153.176 161.966 142.501 169.074 132.546L134.396 181.111L103.668 224.142C102.482 225.802 101.394 227.503 100.401 229.235C100.276 229.456 100.151 229.677 100.028 229.897C92.7887 242.923 90.9036 257.766 93.9037 271.591C93.9751 271.921 94.0495 272.249 94.1266 272.578C94.7069 275.051 95.4444 277.489 96.3363 279.876Z"/></clipPath><clipPath id="paint5_diamond_386_245_clip_path"><path fill-rule="evenodd" clip-rule="evenodd" d="M427.933 180.544L427.745 180.805C427.808 180.718 427.87 180.631 427.933 180.544Z"/></clipPath><clipPath id="paint6_diamond_386_245_clip_path"><path fill-rule="evenodd" clip-rule="evenodd" d="M363.395 270.913C363.252 271.118 363.107 271.322 362.96 271.526L397.64 222.961L397.641 222.96L427.745 180.801L428.11 180.29C429.374 178.499 430.527 176.663 431.568 174.789L431.879 175.011L432.317 174.397L431.934 174.121C438.87 161.258 440.642 146.685 437.692 133.095C437.621 132.766 437.546 132.437 437.469 132.108C436.82 129.342 435.974 126.62 434.936 123.965C434.094 121.809 433.124 119.698 432.03 117.643C431.003 115.717 429.867 113.839 428.623 112.021C428.473 111.8 428.321 111.581 428.166 111.362C424.416 106.037 419.724 101.242 414.135 97.2354L383.847 139.652L383.407 140.267L374.568 152.646C382.033 169.157 385.652 187.175 385.185 205.238C384.885 216.891 382.881 228.563 379.113 239.862C375.508 250.669 370.289 261.134 363.395 270.913ZM397.64 222.961C397.556 223.079 397.472 223.195 397.388 223.31L397.887 222.612C397.805 222.729 397.723 222.846 397.64 222.961Z"/></clipPath><linearGradient id="paint0_diamond_386_245" x1="0" y1="0" x2="500" y2="500" gradientUnits="userSpaceOnUse">
<stop offset="0.735577" stop-color="#49535E"/>
<stop offset="1" stop-color="#1B9AAA"/>
</linearGradient>
<linearGradient id="paint1_diamond_386_245" x1="0" y1="0" x2="500" y2="500" gradientUnits="userSpaceOnUse">
<stop offset="0.735577" stop-color="#49535E"/>
<stop offset="1" stop-color="#1B9AAA"/>
</linearGradient>
<linearGradient id="paint2_diamond_386_245" x1="0" y1="0" x2="500" y2="500" gradientUnits="userSpaceOnUse">
<stop offset="0.735577" stop-color="#49535E"/>
<stop offset="1" stop-color="#1B9AAA"/>
</linearGradient>
<linearGradient id="paint3_diamond_386_245" x1="0" y1="0" x2="500" y2="500" gradientUnits="userSpaceOnUse">
<stop offset="0.735577" stop-color="#49535E"/>
<stop offset="1" stop-color="#1B9AAA"/>
</linearGradient>
<linearGradient id="paint4_diamond_386_245" x1="0" y1="0" x2="500" y2="500" gradientUnits="userSpaceOnUse">
<stop offset="0.735577" stop-color="#49535E"/>
<stop offset="1" stop-color="#1B9AAA"/>
</linearGradient>
<linearGradient id="paint5_diamond_386_245" x1="0" y1="0" x2="500" y2="500" gradientUnits="userSpaceOnUse">
<stop offset="0.735577" stop-color="#49535E"/>
<stop offset="1" stop-color="#1B9AAA"/>
</linearGradient>
<linearGradient id="paint6_diamond_386_245" x1="0" y1="0" x2="500" y2="500" gradientUnits="userSpaceOnUse">
<stop offset="0.735577" stop-color="#49535E"/>
<stop offset="1" stop-color="#1B9AAA"/>
</linearGradient>
</defs>
</svg>
