<svg width="1299" height="345" viewBox="0 0 1299 345" fill="none" xmlns="http://www.w3.org/2000/svg">
<path fill-rule="evenodd" clip-rule="evenodd" d="M186.328 142.667C186.269 142.75 186.21 142.832 186.149 142.914C186.146 142.919 186.143 142.924 186.139 142.93C186.107 142.973 186.076 143.017 186.044 143.061C185.95 143.191 185.856 143.322 185.765 143.455L186.328 142.667Z" fill="black"/>
<path fill-rule="evenodd" clip-rule="evenodd" d="M168.17 256.26L167.903 256.069C167.992 256.133 168.08 256.198 168.17 256.26Z" fill="#1B9AAA"/>
<path fill-rule="evenodd" clip-rule="evenodd" d="M186.044 143.061C185.95 143.191 185.856 143.322 185.765 143.455L186.328 142.667C186.269 142.75 186.21 142.832 186.149 142.914L186.139 142.93C186.107 142.973 186.076 143.017 186.044 143.061ZM197.345 214.897C197.418 214.798 197.49 214.698 197.561 214.597C197.633 214.497 197.705 214.395 197.777 214.294L197.345 214.897Z" fill="#1B9AAA"/>
<path fill-rule="evenodd" clip-rule="evenodd" d="M310.505 231.943L310.132 232.465L310.133 232.467C310.258 232.293 310.382 232.119 310.505 231.943Z" fill="#1B9AAA"/>
<g clip-path="url(#paint0_diamond_387_440_clip_path)" data-figma-skip-parse="true"><g transform="matrix(-0.144542 0.20211 -0.124368 -0.0890123 227.221 173.125)"><rect x="0" y="0" width="212.284" height="678.049" fill="url(#paint0_diamond_387_440)" opacity="1" shape-rendering="crispEdges"/><rect x="0" y="0" width="212.284" height="678.049" transform="scale(1 -1)" fill="url(#paint0_diamond_387_440)" opacity="1" shape-rendering="crispEdges"/><rect x="0" y="0" width="212.284" height="678.049" transform="scale(-1 1)" fill="url(#paint0_diamond_387_440)" opacity="1" shape-rendering="crispEdges"/><rect x="0" y="0" width="212.284" height="678.049" transform="scale(-1)" fill="url(#paint0_diamond_387_440)" opacity="1" shape-rendering="crispEdges"/></g></g><path fill-rule="evenodd" clip-rule="evenodd" d="M339.793 190.995C339.864 190.896 339.934 190.797 340.005 190.696L339.578 191.293C339.649 191.194 339.721 191.095 339.793 190.995Z" data-figma-gradient-fill="{&#34;type&#34;:&#34;GRADIENT_DIAMOND&#34;,&#34;stops&#34;:[{&#34;color&#34;:{&#34;r&#34;:0.28627452254295349,&#34;g&#34;:0.32549020648002625,&#34;b&#34;:0.36862745881080627,&#34;a&#34;:1.0},&#34;position&#34;:0.73557692766189575},{&#34;color&#34;:{&#34;r&#34;:0.10588235408067703,&#34;g&#34;:0.60392159223556519,&#34;b&#34;:0.66666668653488159,&#34;a&#34;:1.0},&#34;position&#34;:1.0}],&#34;stopsVar&#34;:[{&#34;color&#34;:{&#34;r&#34;:0.28627452254295349,&#34;g&#34;:0.32549020648002625,&#34;b&#34;:0.36862745881080627,&#34;a&#34;:1.0},&#34;position&#34;:0.73557692766189575},{&#34;color&#34;:{&#34;r&#34;:0.10588235408067703,&#34;g&#34;:0.60392159223556519,&#34;b&#34;:0.66666668653488159,&#34;a&#34;:1.0},&#34;position&#34;:1.0}],&#34;transform&#34;:{&#34;m00&#34;:-289.0847167968750,&#34;m01&#34;:-248.73597717285156,&#34;m02&#34;:496.13177490234375,&#34;m10&#34;:404.22079467773438,&#34;m11&#34;:-178.0246582031250,&#34;m12&#34;:60.027404785156250},&#34;opacity&#34;:1.0,&#34;blendMode&#34;:&#34;NORMAL&#34;,&#34;visible&#34;:true}"/>
<g clip-path="url(#paint1_diamond_387_440_clip_path)" data-figma-skip-parse="true"><g transform="matrix(-0.144542 0.20211 -0.124368 -0.0890123 227.221 173.125)"><rect x="0" y="0" width="391.107" height="677.446" fill="url(#paint1_diamond_387_440)" opacity="1" shape-rendering="crispEdges"/><rect x="0" y="0" width="391.107" height="677.446" transform="scale(1 -1)" fill="url(#paint1_diamond_387_440)" opacity="1" shape-rendering="crispEdges"/><rect x="0" y="0" width="391.107" height="677.446" transform="scale(-1 1)" fill="url(#paint1_diamond_387_440)" opacity="1" shape-rendering="crispEdges"/><rect x="0" y="0" width="391.107" height="677.446" transform="scale(-1)" fill="url(#paint1_diamond_387_440)" opacity="1" shape-rendering="crispEdges"/></g></g><path fill-rule="evenodd" clip-rule="evenodd" d="M365.541 154.991C365.593 154.918 365.645 154.845 365.697 154.772C365.75 154.699 365.801 154.628 365.853 154.555L365.697 154.772L365.541 154.991Z" data-figma-gradient-fill="{&#34;type&#34;:&#34;GRADIENT_DIAMOND&#34;,&#34;stops&#34;:[{&#34;color&#34;:{&#34;r&#34;:0.28627452254295349,&#34;g&#34;:0.32549020648002625,&#34;b&#34;:0.36862745881080627,&#34;a&#34;:1.0},&#34;position&#34;:0.73557692766189575},{&#34;color&#34;:{&#34;r&#34;:0.10588235408067703,&#34;g&#34;:0.60392159223556519,&#34;b&#34;:0.66666668653488159,&#34;a&#34;:1.0},&#34;position&#34;:1.0}],&#34;stopsVar&#34;:[{&#34;color&#34;:{&#34;r&#34;:0.28627452254295349,&#34;g&#34;:0.32549020648002625,&#34;b&#34;:0.36862745881080627,&#34;a&#34;:1.0},&#34;position&#34;:0.73557692766189575},{&#34;color&#34;:{&#34;r&#34;:0.10588235408067703,&#34;g&#34;:0.60392159223556519,&#34;b&#34;:0.66666668653488159,&#34;a&#34;:1.0},&#34;position&#34;:1.0}],&#34;transform&#34;:{&#34;m00&#34;:-289.08477783203125,&#34;m01&#34;:-248.73600769042969,&#34;m02&#34;:496.13171386718750,&#34;m10&#34;:404.22076416015625,&#34;m11&#34;:-178.02464294433594,&#34;m12&#34;:60.027126312255859},&#34;opacity&#34;:1.0,&#34;blendMode&#34;:&#34;NORMAL&#34;,&#34;visible&#34;:true}"/>
<path fill-rule="evenodd" clip-rule="evenodd" d="M309.755 232.992C309.881 232.817 310.007 232.642 310.132 232.468L310.131 232.466L309.755 232.992Z" fill="#1B9AAA"/>
<g clip-path="url(#paint2_diamond_387_440_clip_path)" data-figma-skip-parse="true"><g transform="matrix(-0.148469 0.206707 -0.127747 -0.0910368 223.372 173.662)"><rect x="0" y="0" width="414.791" height="673.611" fill="url(#paint2_diamond_387_440)" opacity="1" shape-rendering="crispEdges"/><rect x="0" y="0" width="414.791" height="673.611" transform="scale(1 -1)" fill="url(#paint2_diamond_387_440)" opacity="1" shape-rendering="crispEdges"/><rect x="0" y="0" width="414.791" height="673.611" transform="scale(-1 1)" fill="url(#paint2_diamond_387_440)" opacity="1" shape-rendering="crispEdges"/><rect x="0" y="0" width="414.791" height="673.611" transform="scale(-1)" fill="url(#paint2_diamond_387_440)" opacity="1" shape-rendering="crispEdges"/></g></g><path fill-rule="evenodd" clip-rule="evenodd" d="M368.996 149.525L368.959 149.592L368.925 149.654C368.936 149.634 368.948 149.613 368.959 149.592C368.971 149.57 368.983 149.548 368.996 149.525Z" data-figma-gradient-fill="{&#34;type&#34;:&#34;GRADIENT_DIAMOND&#34;,&#34;stops&#34;:[{&#34;color&#34;:{&#34;r&#34;:0.28627452254295349,&#34;g&#34;:0.32549020648002625,&#34;b&#34;:0.36862745881080627,&#34;a&#34;:1.0},&#34;position&#34;:0.73557692766189575},{&#34;color&#34;:{&#34;r&#34;:0.10588235408067703,&#34;g&#34;:0.60392159223556519,&#34;b&#34;:0.66666668653488159,&#34;a&#34;:1.0},&#34;position&#34;:1.0}],&#34;stopsVar&#34;:[{&#34;color&#34;:{&#34;r&#34;:0.28627452254295349,&#34;g&#34;:0.32549020648002625,&#34;b&#34;:0.36862745881080627,&#34;a&#34;:1.0},&#34;position&#34;:0.73557692766189575},{&#34;color&#34;:{&#34;r&#34;:0.10588235408067703,&#34;g&#34;:0.60392159223556519,&#34;b&#34;:0.66666668653488159,&#34;a&#34;:1.0},&#34;position&#34;:1.0}],&#34;transform&#34;:{&#34;m00&#34;:-296.93820190429688,&#34;m01&#34;:-255.49331665039062,&#34;m02&#34;:499.58758544921875,&#34;m10&#34;:413.4143066406250,&#34;m11&#34;:-182.07363891601562,&#34;m12&#34;:57.992084503173828},&#34;opacity&#34;:1.0,&#34;blendMode&#34;:&#34;NORMAL&#34;,&#34;visible&#34;:true}"/>
<g clip-path="url(#paint3_diamond_387_440_clip_path)" data-figma-skip-parse="true"><g transform="matrix(-0.144846 0.202366 -0.124629 -0.0891249 227.513 173.028)"><rect x="0" y="0" width="585.851" height="456.364" fill="url(#paint3_diamond_387_440)" opacity="1" shape-rendering="crispEdges"/><rect x="0" y="0" width="585.851" height="456.364" transform="scale(1 -1)" fill="url(#paint3_diamond_387_440)" opacity="1" shape-rendering="crispEdges"/><rect x="0" y="0" width="585.851" height="456.364" transform="scale(-1 1)" fill="url(#paint3_diamond_387_440)" opacity="1" shape-rendering="crispEdges"/><rect x="0" y="0" width="585.851" height="456.364" transform="scale(-1)" fill="url(#paint3_diamond_387_440)" opacity="1" shape-rendering="crispEdges"/></g></g><path fill-rule="evenodd" clip-rule="evenodd" d="M87.8445 250.623L87.7744 250.521C87.7978 250.555 87.8212 250.589 87.8445 250.623Z" data-figma-gradient-fill="{&#34;type&#34;:&#34;GRADIENT_DIAMOND&#34;,&#34;stops&#34;:[{&#34;color&#34;:{&#34;r&#34;:0.28627452254295349,&#34;g&#34;:0.32549020648002625,&#34;b&#34;:0.36862745881080627,&#34;a&#34;:1.0},&#34;position&#34;:0.73557692766189575},{&#34;color&#34;:{&#34;r&#34;:0.10588235408067703,&#34;g&#34;:0.60392159223556519,&#34;b&#34;:0.66666668653488159,&#34;a&#34;:1.0},&#34;position&#34;:1.0}],&#34;stopsVar&#34;:[{&#34;color&#34;:{&#34;r&#34;:0.28627452254295349,&#34;g&#34;:0.32549020648002625,&#34;b&#34;:0.36862745881080627,&#34;a&#34;:1.0},&#34;position&#34;:0.73557692766189575},{&#34;color&#34;:{&#34;r&#34;:0.10588235408067703,&#34;g&#34;:0.60392159223556519,&#34;b&#34;:0.66666668653488159,&#34;a&#34;:1.0},&#34;position&#34;:1.0}],&#34;transform&#34;:{&#34;m00&#34;:-289.69183349609375,&#34;m01&#34;:-249.25836181640625,&#34;m02&#34;:496.9885253906250,&#34;m10&#34;:404.73178100585938,&#34;m11&#34;:-178.24971008300781,&#34;m12&#34;:59.787174224853516},&#34;opacity&#34;:1.0,&#34;blendMode&#34;:&#34;NORMAL&#34;,&#34;visible&#34;:true}"/>
<path fill-rule="evenodd" clip-rule="evenodd" d="M286.211 89.9478L286.543 90.1841C286.432 90.1051 286.321 90.0263 286.211 89.9478Z" fill="black"/>
<g clip-path="url(#paint4_diamond_387_440_clip_path)" data-figma-skip-parse="true"><g transform="matrix(-0.144542 0.20211 -0.124368 -0.0890123 227.221 173.125)"><rect x="0" y="0" width="647.756" height="1023.94" fill="url(#paint4_diamond_387_440)" opacity="1" shape-rendering="crispEdges"/><rect x="0" y="0" width="647.756" height="1023.94" transform="scale(1 -1)" fill="url(#paint4_diamond_387_440)" opacity="1" shape-rendering="crispEdges"/><rect x="0" y="0" width="647.756" height="1023.94" transform="scale(-1 1)" fill="url(#paint4_diamond_387_440)" opacity="1" shape-rendering="crispEdges"/><rect x="0" y="0" width="647.756" height="1023.94" transform="scale(-1)" fill="url(#paint4_diamond_387_440)" opacity="1" shape-rendering="crispEdges"/></g></g><path d="M82.0986 239.597C82.7974 241.464 83.607 243.296 84.5257 245.079C85.4893 246.948 86.5729 248.767 87.7744 250.52L87.8444 250.622C87.8724 250.662 87.9005 250.703 87.9286 250.743C87.9644 250.795 88.0002 250.846 88.0361 250.898C88.0792 250.96 88.1223 251.021 88.1655 251.082C91.3732 255.63 95.3854 259.724 100.166 263.146L126.446 226.398L126.821 225.873L134.382 215.302C132.695 211.577 131.237 207.762 130.014 203.88C126.654 193.225 125.053 182.067 125.289 170.882C125.502 160.767 127.218 150.63 130.494 140.822C133.642 131.401 138.229 122.285 144.309 113.784L114.65 155.256L88.3688 192.002C87.355 193.42 86.4241 194.872 85.5753 196.352C85.4678 196.54 85.361 196.729 85.2561 196.917C79.0645 208.041 77.4523 220.716 80.0181 232.522C80.0792 232.804 80.1428 233.084 80.2087 233.365C80.7051 235.477 81.3358 237.559 82.0986 239.597Z" data-figma-gradient-fill="{&#34;type&#34;:&#34;GRADIENT_DIAMOND&#34;,&#34;stops&#34;:[{&#34;color&#34;:{&#34;r&#34;:0.28627452254295349,&#34;g&#34;:0.32549020648002625,&#34;b&#34;:0.36862745881080627,&#34;a&#34;:1.0},&#34;position&#34;:0.73557692766189575},{&#34;color&#34;:{&#34;r&#34;:0.10588235408067703,&#34;g&#34;:0.60392159223556519,&#34;b&#34;:0.66666668653488159,&#34;a&#34;:1.0},&#34;position&#34;:1.0}],&#34;stopsVar&#34;:[{&#34;color&#34;:{&#34;r&#34;:0.28627452254295349,&#34;g&#34;:0.32549020648002625,&#34;b&#34;:0.36862745881080627,&#34;a&#34;:1.0},&#34;position&#34;:0.73557692766189575},{&#34;color&#34;:{&#34;r&#34;:0.10588235408067703,&#34;g&#34;:0.60392159223556519,&#34;b&#34;:0.66666668653488159,&#34;a&#34;:1.0},&#34;position&#34;:1.0}],&#34;transform&#34;:{&#34;m00&#34;:-289.08474731445312,&#34;m01&#34;:-248.73600769042969,&#34;m02&#34;:496.13098144531250,&#34;m10&#34;:404.22079467773438,&#34;m11&#34;:-178.02467346191406,&#34;m12&#34;:60.026969909667969},&#34;opacity&#34;:1.0,&#34;blendMode&#34;:&#34;NORMAL&#34;,&#34;visible&#34;:true}"/>
<g clip-path="url(#paint5_diamond_387_440_clip_path)" data-figma-skip-parse="true"><g transform="matrix(-0.146345 0.204775 -0.125919 -0.0901858 225.496 173.367)"><rect x="0" y="0" width="389.959" height="676.504" fill="url(#paint5_diamond_387_440)" opacity="1" shape-rendering="crispEdges"/><rect x="0" y="0" width="389.959" height="676.504" transform="scale(1 -1)" fill="url(#paint5_diamond_387_440)" opacity="1" shape-rendering="crispEdges"/><rect x="0" y="0" width="389.959" height="676.504" transform="scale(-1 1)" fill="url(#paint5_diamond_387_440)" opacity="1" shape-rendering="crispEdges"/><rect x="0" y="0" width="389.959" height="676.504" transform="scale(-1)" fill="url(#paint5_diamond_387_440)" opacity="1" shape-rendering="crispEdges"/></g></g><path fill-rule="evenodd" clip-rule="evenodd" d="M365.699 154.772L365.541 154.994C365.594 154.92 365.647 154.846 365.699 154.772Z" data-figma-gradient-fill="{&#34;type&#34;:&#34;GRADIENT_DIAMOND&#34;,&#34;stops&#34;:[{&#34;color&#34;:{&#34;r&#34;:0.28627452254295349,&#34;g&#34;:0.32549020648002625,&#34;b&#34;:0.36862745881080627,&#34;a&#34;:1.0},&#34;position&#34;:0.73557692766189575},{&#34;color&#34;:{&#34;r&#34;:0.10588235408067703,&#34;g&#34;:0.60392159223556519,&#34;b&#34;:0.66666668653488159,&#34;a&#34;:1.0},&#34;position&#34;:1.0}],&#34;stopsVar&#34;:[{&#34;color&#34;:{&#34;r&#34;:0.28627452254295349,&#34;g&#34;:0.32549020648002625,&#34;b&#34;:0.36862745881080627,&#34;a&#34;:1.0},&#34;position&#34;:0.73557692766189575},{&#34;color&#34;:{&#34;r&#34;:0.10588235408067703,&#34;g&#34;:0.60392159223556519,&#34;b&#34;:0.66666668653488159,&#34;a&#34;:1.0},&#34;position&#34;:1.0}],&#34;transform&#34;:{&#34;m00&#34;:-292.69082641601562,&#34;m01&#34;:-251.83876037597656,&#34;m02&#34;:497.76071166992188,&#34;m10&#34;:409.54992675781250,&#34;m11&#34;:-180.37170410156250,&#34;m12&#34;:58.778190612792969},&#34;opacity&#34;:1.0,&#34;blendMode&#34;:&#34;NORMAL&#34;,&#34;visible&#34;:true}"/>
<g clip-path="url(#paint6_diamond_387_440_clip_path)" data-figma-skip-parse="true"><g transform="matrix(-0.144542 0.20211 -0.124368 -0.0890123 227.221 173.126)"><rect x="0" y="0" width="645.159" height="1021.94" fill="url(#paint6_diamond_387_440)" opacity="1" shape-rendering="crispEdges"/><rect x="0" y="0" width="645.159" height="1021.94" transform="scale(1 -1)" fill="url(#paint6_diamond_387_440)" opacity="1" shape-rendering="crispEdges"/><rect x="0" y="0" width="645.159" height="1021.94" transform="scale(-1 1)" fill="url(#paint6_diamond_387_440)" opacity="1" shape-rendering="crispEdges"/><rect x="0" y="0" width="645.159" height="1021.94" transform="scale(-1)" fill="url(#paint6_diamond_387_440)" opacity="1" shape-rendering="crispEdges"/></g></g><path fill-rule="evenodd" clip-rule="evenodd" d="M310.504 231.944C310.381 232.119 310.257 232.293 310.132 232.468L339.792 190.995L339.793 190.994L365.54 154.991L365.852 154.555C366.933 153.026 367.919 151.458 368.81 149.858L369.076 150.048L369.451 149.523L369.123 149.287C375.055 138.302 376.57 125.858 374.048 114.253C373.987 113.971 373.923 113.691 373.857 113.41C373.302 111.048 372.578 108.723 371.691 106.456C370.97 104.615 370.141 102.812 369.205 101.057C368.327 99.4122 367.355 97.8084 366.291 96.2559C366.162 96.0676 366.032 95.8801 365.901 95.6935C362.693 91.1462 358.68 87.051 353.9 83.6299L327.996 119.852L327.62 120.377L320.06 130.949C326.445 145.048 329.54 160.435 329.14 175.86C328.883 185.811 327.17 195.779 323.947 205.428C320.864 214.656 316.4 223.592 310.504 231.944ZM339.792 190.995C339.721 191.095 339.649 191.195 339.577 191.293L340.004 190.696C339.933 190.797 339.863 190.896 339.792 190.995Z" data-figma-gradient-fill="{&#34;type&#34;:&#34;GRADIENT_DIAMOND&#34;,&#34;stops&#34;:[{&#34;color&#34;:{&#34;r&#34;:0.28627452254295349,&#34;g&#34;:0.32549020648002625,&#34;b&#34;:0.36862745881080627,&#34;a&#34;:1.0},&#34;position&#34;:0.73557692766189575},{&#34;color&#34;:{&#34;r&#34;:0.10588235408067703,&#34;g&#34;:0.60392159223556519,&#34;b&#34;:0.66666668653488159,&#34;a&#34;:1.0},&#34;position&#34;:1.0}],&#34;stopsVar&#34;:[{&#34;color&#34;:{&#34;r&#34;:0.28627452254295349,&#34;g&#34;:0.32549020648002625,&#34;b&#34;:0.36862745881080627,&#34;a&#34;:1.0},&#34;position&#34;:0.73557692766189575},{&#34;color&#34;:{&#34;r&#34;:0.10588235408067703,&#34;g&#34;:0.60392159223556519,&#34;b&#34;:0.66666668653488159,&#34;a&#34;:1.0},&#34;position&#34;:1.0}],&#34;transform&#34;:{&#34;m00&#34;:-289.08477783203125,&#34;m01&#34;:-248.73602294921875,&#34;m02&#34;:496.13107299804688,&#34;m10&#34;:404.22076416015625,&#34;m11&#34;:-178.02464294433594,&#34;m12&#34;:60.027473449707031},&#34;opacity&#34;:1.0,&#34;blendMode&#34;:&#34;NORMAL&#34;,&#34;visible&#34;:true}"/>
<path d="M286.212 89.9475L286.541 90.1815L286.868 90.4175C295.225 96.4479 302.4 103.512 308.342 111.31C313.02 117.451 316.934 124.046 320.061 130.949L294.583 166.574L268.683 202.789C268.773 202.658 268.735 202.436 268.698 202.214C268.659 201.99 268.622 201.765 268.716 201.633C284.929 178.962 279.785 147.47 257.259 131.132L257.252 131.127C260.109 127.028 262.279 122.65 263.788 118.134C268.445 104.194 266.795 88.9228 259.511 76.3618C263.686 77.7577 267.801 79.4366 271.83 81.4032C276.771 83.8156 281.582 86.6609 286.212 89.9475Z" fill="#1B9AAA" fill-opacity="0.39"/>
<path fill-rule="evenodd" clip-rule="evenodd" d="M186.149 142.914C186.21 142.833 186.269 142.75 186.328 142.667C202.604 119.908 234.243 114.658 256.993 130.941C257.03 130.967 257.068 130.994 257.105 131.021C257.154 131.056 257.203 131.091 257.252 131.127C260.108 127.028 262.278 122.651 263.787 118.134C268.444 104.194 266.795 88.9229 259.51 76.3619C253.777 74.4452 247.932 73.0626 242.045 72.202C240.415 71.9639 238.782 71.7657 237.147 71.6072C236.275 71.5227 235.402 71.4495 234.528 71.3875C218.463 70.248 202.305 72.9293 187.468 79.197C179.691 82.482 172.277 86.7524 165.429 91.9743C157.533 97.9961 150.388 105.283 144.309 113.784C138.229 122.285 133.642 131.402 130.494 140.823C127.218 150.631 125.502 160.768 125.289 170.883C125.053 182.068 126.654 193.226 130.014 203.88C131.237 207.762 132.695 211.578 134.382 215.302C137.508 222.206 141.422 228.801 146.101 234.941C152.057 242.759 159.252 249.839 167.636 255.879L167.902 256.069L168.167 256.258C176.589 262.247 185.611 266.774 194.931 269.889C202.25 272.337 209.754 273.913 217.294 274.644C221.363 275.038 225.442 275.186 229.51 275.091C250.772 274.598 271.701 267.478 289.012 254.277C296.746 248.38 303.759 241.268 309.755 232.991L310.131 232.466L310.504 231.944C316.4 223.593 320.864 214.656 323.947 205.428C327.17 195.779 328.883 185.811 329.14 175.86C329.54 160.435 326.445 145.048 320.06 130.949L294.582 166.574L268.682 202.789L268.676 202.796C252.307 224.799 220.791 229.413 198.326 213.557C198.067 213.899 197.812 214.246 197.561 214.597C197.49 214.698 197.418 214.798 197.345 214.898L197.777 214.294C197.953 214.043 198.128 213.791 198.3 213.538C198.216 213.479 198.133 213.42 198.05 213.36C175.562 197.265 170.167 166.151 185.765 143.455C185.856 143.322 185.95 143.191 186.044 143.061C186.076 143.017 186.107 142.973 186.139 142.93L186.149 142.914Z" fill="#1B9AAA"/>
<path d="M475.064 109.492V176.5H461.624V109.492H475.064ZM517.815 122.548C524.151 122.548 529.271 124.564 533.175 128.596C537.079 132.564 539.031 138.132 539.031 145.3V176.5H525.591V147.124C525.591 142.9 524.535 139.668 522.423 137.428C520.311 135.124 517.431 133.972 513.783 133.972C510.071 133.972 507.127 135.124 504.951 137.428C502.839 139.668 501.783 142.9 501.783 147.124V176.5H488.343V123.316H501.783V129.94C503.575 127.636 505.847 125.844 508.599 124.564C511.415 123.22 514.487 122.548 517.815 122.548ZM575.428 177.364C570.308 177.364 565.7 176.244 561.604 174.004C557.508 171.7 554.276 168.468 551.908 164.308C549.604 160.148 548.452 155.348 548.452 149.908C548.452 144.468 549.636 139.668 552.004 135.508C554.436 131.348 557.732 128.148 561.892 125.908C566.052 123.604 570.692 122.452 575.812 122.452C580.932 122.452 585.572 123.604 589.732 125.908C593.892 128.148 597.156 131.348 599.524 135.508C601.956 139.668 603.172 144.468 603.172 149.908C603.172 155.348 601.924 160.148 599.427 164.308C596.996 168.468 593.668 171.7 589.444 174.004C585.284 176.244 580.612 177.364 575.428 177.364ZM575.428 165.652C577.86 165.652 580.132 165.076 582.244 163.924C584.42 162.708 586.148 160.916 587.428 158.548C588.708 156.18 589.348 153.3 589.348 149.908C589.348 144.852 588.004 140.98 585.316 138.292C582.692 135.54 579.46 134.164 575.62 134.164C571.78 134.164 568.548 135.54 565.924 138.292C563.364 140.98 562.084 144.852 562.084 149.908C562.084 154.964 563.332 158.868 565.828 161.62C568.388 164.308 571.588 165.652 575.428 165.652ZM635.206 164.116L648.646 123.316H662.95L643.27 176.5H626.95L607.366 123.316H621.766L635.206 164.116ZM667.043 149.716C667.043 144.34 668.099 139.572 670.211 135.412C672.387 131.252 675.299 128.052 678.947 125.812C682.659 123.572 686.787 122.452 691.331 122.452C695.299 122.452 698.755 123.252 701.699 124.852C704.707 126.452 707.107 128.468 708.899 130.9V123.316H722.435V176.5H708.899V168.724C707.171 171.22 704.771 173.3 701.699 174.964C698.691 176.564 695.203 177.364 691.235 177.364C686.755 177.364 682.659 176.212 678.947 173.908C675.299 171.604 672.387 168.372 670.211 164.212C668.099 159.988 667.043 155.156 667.043 149.716ZM708.899 149.908C708.899 146.644 708.259 143.86 706.979 141.556C705.699 139.188 703.971 137.396 701.795 136.18C699.619 134.9 697.283 134.26 694.787 134.26C692.291 134.26 689.987 134.868 687.875 136.084C685.763 137.3 684.035 139.092 682.691 141.46C681.411 143.764 680.771 146.516 680.771 149.716C680.771 152.916 681.411 155.732 682.691 158.164C684.035 160.532 685.763 162.356 687.875 163.636C690.051 164.916 692.355 165.556 694.787 165.556C697.283 165.556 699.619 164.948 701.795 163.732C703.971 162.452 705.699 160.66 706.979 158.356C708.259 155.988 708.899 153.172 708.899 149.908ZM755.914 177.364C751.562 177.364 747.658 176.596 744.202 175.06C740.746 173.46 737.994 171.316 735.946 168.628C733.962 165.94 732.874 162.964 732.682 159.7H746.218C746.474 161.748 747.466 163.444 749.194 164.788C750.986 166.132 753.194 166.804 755.818 166.804C758.378 166.804 760.362 166.292 761.77 165.268C763.242 164.244 763.978 162.932 763.978 161.332C763.978 159.604 763.082 158.324 761.29 157.492C759.562 156.596 756.778 155.636 752.938 154.612C748.97 153.652 745.706 152.66 743.146 151.636C740.65 150.612 738.474 149.044 736.618 146.932C734.826 144.82 733.93 141.972 733.93 138.388C733.93 135.444 734.762 132.756 736.426 130.324C738.154 127.892 740.586 125.972 743.722 124.564C746.922 123.156 750.666 122.452 754.954 122.452C761.29 122.452 766.346 124.052 770.122 127.252C773.898 130.388 775.978 134.644 776.362 140.02H763.498C763.306 137.908 762.41 136.244 760.81 135.028C759.274 133.748 757.194 133.108 754.57 133.108C752.138 133.108 750.25 133.556 748.906 134.452C747.626 135.348 746.986 136.596 746.986 138.196C746.986 139.988 747.882 141.364 749.674 142.324C751.466 143.22 754.25 144.148 758.026 145.108C761.866 146.068 765.034 147.06 767.53 148.084C770.026 149.108 772.17 150.708 773.962 152.884C775.818 154.996 776.778 157.812 776.842 161.332C776.842 164.404 775.978 167.156 774.25 169.588C772.586 172.02 770.154 173.94 766.954 175.348C763.818 176.692 760.138 177.364 755.914 177.364ZM794.69 116.98C792.322 116.98 790.338 116.244 788.738 114.772C787.202 113.236 786.434 111.348 786.434 109.108C786.434 106.868 787.202 105.012 788.738 103.54C790.338 102.004 792.322 101.236 794.69 101.236C797.058 101.236 799.01 102.004 800.546 103.54C802.146 105.012 802.946 106.868 802.946 109.108C802.946 111.348 802.146 113.236 800.546 114.772C799.01 116.244 797.058 116.98 794.69 116.98ZM801.314 123.316V176.5H787.874V123.316H801.314ZM868.572 177.172C862.3 177.172 856.54 175.7 851.292 172.756C846.044 169.812 841.884 165.748 838.812 160.564C835.74 155.316 834.204 149.396 834.204 142.804C834.204 136.276 835.74 130.42 838.812 125.236C841.884 119.988 846.044 115.892 851.292 112.948C856.54 110.004 862.3 108.532 868.572 108.532C874.908 108.532 880.668 110.004 885.852 112.948C891.1 115.892 895.228 119.988 898.236 125.236C901.308 130.42 902.844 136.276 902.844 142.804C902.844 149.396 901.308 155.316 898.236 160.564C895.228 165.748 891.1 169.812 885.852 172.756C880.604 175.7 874.844 177.172 868.572 177.172ZM868.572 165.172C872.604 165.172 876.156 164.276 879.228 162.484C882.3 160.628 884.7 158.004 886.428 154.612C888.156 151.22 889.02 147.284 889.02 142.804C889.02 138.324 888.156 134.42 886.428 131.092C884.7 127.7 882.3 125.108 879.228 123.316C876.156 121.524 872.604 120.628 868.572 120.628C864.54 120.628 860.956 121.524 857.82 123.316C854.748 125.108 852.348 127.7 850.62 131.092C848.892 134.42 848.028 138.324 848.028 142.804C848.028 147.284 848.892 151.22 850.62 154.612C852.348 158.004 854.748 160.628 857.82 162.484C860.956 164.276 864.54 165.172 868.572 165.172ZM928.491 134.356V160.084C928.491 161.876 928.907 163.188 929.739 164.02C930.635 164.788 932.107 165.172 934.155 165.172H940.395V176.5H931.947C920.619 176.5 914.955 170.996 914.955 159.988V134.356H908.619V123.316H914.955V110.164H928.491V123.316H940.395V134.356H928.491ZM999.502 148.756C999.502 150.676 999.374 152.404 999.118 153.94H960.238C960.558 157.78 961.902 160.788 964.27 162.964C966.638 165.14 969.55 166.228 973.006 166.228C977.998 166.228 981.55 164.084 983.662 159.796H998.158C996.622 164.916 993.678 169.14 989.326 172.468C984.974 175.732 979.63 177.364 973.294 177.364C968.174 177.364 963.566 176.244 959.47 174.004C955.438 171.7 952.27 168.468 949.966 164.308C947.726 160.148 946.605 155.348 946.605 149.908C946.605 144.404 947.726 139.572 949.966 135.412C952.206 131.252 955.342 128.052 959.374 125.812C963.406 123.572 968.046 122.452 973.294 122.452C978.35 122.452 982.862 123.54 986.83 125.716C990.862 127.892 993.966 130.996 996.142 135.028C998.382 138.996 999.502 143.572 999.502 148.756ZM985.582 144.916C985.518 141.46 984.27 138.708 981.838 136.66C979.406 134.548 976.43 133.492 972.91 133.492C969.582 133.492 966.766 134.516 964.462 136.564C962.222 138.548 960.846 141.332 960.334 144.916H985.582ZM1038.78 122.548C1045.12 122.548 1050.24 124.564 1054.14 128.596C1058.05 132.564 1060 138.132 1060 145.3V176.5H1046.56V147.124C1046.56 142.9 1045.5 139.668 1043.39 137.428C1041.28 135.124 1038.4 133.972 1034.75 133.972C1031.04 133.972 1028.1 135.124 1025.92 137.428C1023.81 139.668 1022.75 142.9 1022.75 147.124V176.5H1009.31V123.316H1022.75V129.94C1024.54 127.636 1026.82 125.844 1029.57 124.564C1032.38 123.22 1035.46 122.548 1038.78 122.548ZM1088.43 134.356V160.084C1088.43 161.876 1088.84 163.188 1089.68 164.02C1090.57 164.788 1092.04 165.172 1094.09 165.172H1100.33V176.5H1091.88C1080.56 176.5 1074.89 170.996 1074.89 159.988V134.356H1068.56V123.316H1074.89V110.164H1088.43V123.316H1100.33V134.356H1088.43ZM1116.82 116.98C1114.45 116.98 1112.46 116.244 1110.86 114.772C1109.33 113.236 1108.56 111.348 1108.56 109.108C1108.56 106.868 1109.33 105.012 1110.86 103.54C1112.46 102.004 1114.45 101.236 1116.82 101.236C1119.18 101.236 1121.14 102.004 1122.67 103.54C1124.27 105.012 1125.07 106.868 1125.07 109.108C1125.07 111.348 1124.27 113.236 1122.67 114.772C1121.14 116.244 1119.18 116.98 1116.82 116.98ZM1123.44 123.316V176.5H1110V123.316H1123.44ZM1168.21 176.5L1150.16 153.844V176.5H1136.72V105.46H1150.16V145.876L1168.01 123.316H1185.49L1162.06 150.004L1185.68 176.5H1168.21Z" fill="#1B9AAA"/>
<path d="M466.34 208.8V250.5H459.5V208.8H466.34ZM546 216.9C548.6 216.9 550.92 217.44 552.96 218.52C555.04 219.6 556.66 221.2 557.82 223.32C558.98 225.44 559.56 228 559.56 231V250.5H552.78V232.02C552.78 229.06 552.04 226.8 550.56 225.24C549.08 223.64 547.06 222.84 544.5 222.84C541.94 222.84 539.9 223.64 538.38 225.24C536.9 226.8 536.16 229.06 536.16 232.02V250.5H529.32V217.44H536.16V221.22C537.28 219.86 538.7 218.8 540.42 218.04C542.18 217.28 544.04 216.9 546 216.9ZM620.005 233.82C620.005 230.5 620.685 227.56 622.045 225C623.445 222.44 625.325 220.46 627.685 219.06C630.085 217.62 632.745 216.9 635.665 216.9C637.825 216.9 639.945 217.38 642.025 218.34C644.145 219.26 645.825 220.5 647.065 222.06V206.1H653.965V250.5H647.065V245.52C645.945 247.12 644.385 248.44 642.385 249.48C640.425 250.52 638.165 251.04 635.605 251.04C632.725 251.04 630.085 250.32 627.685 248.88C625.325 247.4 623.445 245.36 622.045 242.76C620.685 240.12 620.005 237.14 620.005 233.82ZM647.065 233.94C647.065 231.66 646.585 229.68 645.625 228C644.705 226.32 643.485 225.04 641.965 224.16C640.445 223.28 638.805 222.84 637.045 222.84C635.285 222.84 633.645 223.28 632.125 224.16C630.605 225 629.365 226.26 628.405 227.94C627.485 229.58 627.025 231.54 627.025 233.82C627.025 236.1 627.485 238.1 628.405 239.82C629.365 241.54 630.605 242.86 632.125 243.78C633.685 244.66 635.325 245.1 637.045 245.1C638.805 245.1 640.445 244.66 641.965 243.78C643.485 242.9 644.705 241.62 645.625 239.94C646.585 238.22 647.065 236.22 647.065 233.94ZM731.289 251.04C728.169 251.04 725.349 250.34 722.829 248.94C720.309 247.5 718.329 245.5 716.889 242.94C715.449 240.34 714.729 237.34 714.729 233.94C714.729 230.58 715.469 227.6 716.949 225C718.429 222.4 720.449 220.4 723.009 219C725.569 217.6 728.429 216.9 731.589 216.9C734.749 216.9 737.609 217.6 740.169 219C742.729 220.4 744.749 222.4 746.229 225C747.709 227.6 748.449 230.58 748.449 233.94C748.449 237.3 747.689 240.28 746.169 242.88C744.649 245.48 742.569 247.5 739.929 248.94C737.329 250.34 734.449 251.04 731.289 251.04ZM731.289 245.1C733.049 245.1 734.689 244.68 736.209 243.84C737.769 243 739.029 241.74 739.989 240.06C740.949 238.38 741.429 236.34 741.429 233.94C741.429 231.54 740.969 229.52 740.049 227.88C739.129 226.2 737.909 224.94 736.389 224.1C734.869 223.26 733.229 222.84 731.469 222.84C729.709 222.84 728.069 223.26 726.549 224.1C725.069 224.94 723.889 226.2 723.009 227.88C722.129 229.52 721.689 231.54 721.689 233.94C721.689 237.5 722.589 240.26 724.389 242.22C726.229 244.14 728.529 245.1 731.289 245.1ZM825.891 216.9C828.491 216.9 830.811 217.44 832.851 218.52C834.931 219.6 836.551 221.2 837.711 223.32C838.871 225.44 839.451 228 839.451 231V250.5H832.671V232.02C832.671 229.06 831.931 226.8 830.451 225.24C828.971 223.64 826.951 222.84 824.391 222.84C821.831 222.84 819.791 223.64 818.271 225.24C816.791 226.8 816.051 229.06 816.051 232.02V250.5H809.211V217.44H816.051V221.22C817.171 219.86 818.591 218.8 820.311 218.04C822.071 217.28 823.931 216.9 825.891 216.9ZM932.476 233.16C932.476 234.4 932.396 235.52 932.236 236.52H906.976C907.176 239.16 908.156 241.28 909.916 242.88C911.676 244.48 913.836 245.28 916.396 245.28C920.076 245.28 922.676 243.74 924.196 240.66H931.576C930.576 243.7 928.756 246.2 926.116 248.16C923.516 250.08 920.276 251.04 916.396 251.04C913.236 251.04 910.396 250.34 907.876 248.94C905.396 247.5 903.436 245.5 901.996 242.94C900.596 240.34 899.896 237.34 899.896 233.94C899.896 230.54 900.576 227.56 901.936 225C903.336 222.4 905.276 220.4 907.756 219C910.276 217.6 913.156 216.9 916.396 216.9C919.516 216.9 922.296 217.58 924.736 218.94C927.176 220.3 929.076 222.22 930.436 224.7C931.796 227.14 932.476 229.96 932.476 233.16ZM925.336 231C925.296 228.48 924.396 226.46 922.636 224.94C920.876 223.42 918.696 222.66 916.096 222.66C913.736 222.66 911.716 223.42 910.036 224.94C908.356 226.42 907.356 228.44 907.036 231H925.336ZM1005.21 251.04C1002.61 251.04 1000.27 250.58 998.187 249.66C996.147 248.7 994.527 247.42 993.327 245.82C992.127 244.18 991.487 242.36 991.407 240.36H998.487C998.607 241.76 999.267 242.94 1000.47 243.9C1001.71 244.82 1003.25 245.28 1005.09 245.28C1007.01 245.28 1008.49 244.92 1009.53 244.2C1010.61 243.44 1011.15 242.48 1011.15 241.32C1011.15 240.08 1010.55 239.16 1009.35 238.56C1008.19 237.96 1006.33 237.3 1003.77 236.58C1001.29 235.9 999.267 235.24 997.707 234.6C996.147 233.96 994.787 232.98 993.627 231.66C992.507 230.34 991.947 228.6 991.947 226.44C991.947 224.68 992.467 223.08 993.507 221.64C994.547 220.16 996.027 219 997.947 218.16C999.907 217.32 1002.15 216.9 1004.67 216.9C1008.43 216.9 1011.45 217.86 1013.73 219.78C1016.05 221.66 1017.29 224.24 1017.45 227.52H1010.61C1010.49 226.04 1009.89 224.86 1008.81 223.98C1007.73 223.1 1006.27 222.66 1004.43 222.66C1002.63 222.66 1001.25 223 1000.29 223.68C999.327 224.36 998.847 225.26 998.847 226.38C998.847 227.26 999.167 228 999.807 228.6C1000.45 229.2 1001.23 229.68 1002.15 230.04C1003.07 230.36 1004.43 230.78 1006.23 231.3C1008.63 231.94 1010.59 232.6 1012.11 233.28C1013.67 233.92 1015.01 234.88 1016.13 236.16C1017.25 237.44 1017.83 239.14 1017.87 241.26C1017.87 243.14 1017.35 244.82 1016.31 246.3C1015.27 247.78 1013.79 248.94 1011.87 249.78C1009.99 250.62 1007.77 251.04 1005.21 251.04ZM1082.74 213.06C1081.5 213.06 1080.46 212.64 1079.62 211.8C1078.78 210.96 1078.36 209.92 1078.36 208.68C1078.36 207.44 1078.78 206.4 1079.62 205.56C1080.46 204.72 1081.5 204.3 1082.74 204.3C1083.94 204.3 1084.96 204.72 1085.8 205.56C1086.64 206.4 1087.06 207.44 1087.06 208.68C1087.06 209.92 1086.64 210.96 1085.8 211.8C1084.96 212.64 1083.94 213.06 1082.74 213.06ZM1086.1 217.44V250.5H1079.26V217.44H1086.1ZM1146.8 233.82C1146.8 230.5 1147.48 227.56 1148.84 225C1150.24 222.44 1152.12 220.46 1154.48 219.06C1156.88 217.62 1159.52 216.9 1162.4 216.9C1165 216.9 1167.26 217.42 1169.18 218.46C1171.14 219.46 1172.7 220.72 1173.86 222.24V217.44H1180.76V250.5H1173.86V245.58C1172.7 247.14 1171.12 248.44 1169.12 249.48C1167.12 250.52 1164.84 251.04 1162.28 251.04C1159.44 251.04 1156.84 250.32 1154.48 248.88C1152.12 247.4 1150.24 245.36 1148.84 242.76C1147.48 240.12 1146.8 237.14 1146.8 233.82ZM1173.86 233.94C1173.86 231.66 1173.38 229.68 1172.42 228C1171.5 226.32 1170.28 225.04 1168.76 224.16C1167.24 223.28 1165.6 222.84 1163.84 222.84C1162.08 222.84 1160.44 223.28 1158.92 224.16C1157.4 225 1156.16 226.26 1155.2 227.94C1154.28 229.58 1153.82 231.54 1153.82 233.82C1153.82 236.1 1154.28 238.1 1155.2 239.82C1156.16 241.54 1157.4 242.86 1158.92 243.78C1160.48 244.66 1162.12 245.1 1163.84 245.1C1165.6 245.1 1167.24 244.66 1168.76 243.78C1170.28 242.9 1171.5 241.62 1172.42 239.94C1173.38 238.22 1173.86 236.22 1173.86 233.94Z" fill="#1B9AAA"/>
<defs>
<clipPath id="paint0_diamond_387_440_clip_path"><path fill-rule="evenodd" clip-rule="evenodd" d="M339.793 190.995C339.864 190.896 339.934 190.797 340.005 190.696L339.578 191.293C339.649 191.194 339.721 191.095 339.793 190.995Z"/></clipPath><clipPath id="paint1_diamond_387_440_clip_path"><path fill-rule="evenodd" clip-rule="evenodd" d="M365.541 154.991C365.593 154.918 365.645 154.845 365.697 154.772C365.75 154.699 365.801 154.628 365.853 154.555L365.697 154.772L365.541 154.991Z"/></clipPath><clipPath id="paint2_diamond_387_440_clip_path"><path fill-rule="evenodd" clip-rule="evenodd" d="M368.996 149.525L368.959 149.592L368.925 149.654C368.936 149.634 368.948 149.613 368.959 149.592C368.971 149.57 368.983 149.548 368.996 149.525Z"/></clipPath><clipPath id="paint3_diamond_387_440_clip_path"><path fill-rule="evenodd" clip-rule="evenodd" d="M87.8445 250.623L87.7744 250.521C87.7978 250.555 87.8212 250.589 87.8445 250.623Z"/></clipPath><clipPath id="paint4_diamond_387_440_clip_path"><path d="M82.0986 239.597C82.7974 241.464 83.607 243.296 84.5257 245.079C85.4893 246.948 86.5729 248.767 87.7744 250.52L87.8444 250.622C87.8724 250.662 87.9005 250.703 87.9286 250.743C87.9644 250.795 88.0002 250.846 88.0361 250.898C88.0792 250.96 88.1223 251.021 88.1655 251.082C91.3732 255.63 95.3854 259.724 100.166 263.146L126.446 226.398L126.821 225.873L134.382 215.302C132.695 211.577 131.237 207.762 130.014 203.88C126.654 193.225 125.053 182.067 125.289 170.882C125.502 160.767 127.218 150.63 130.494 140.822C133.642 131.401 138.229 122.285 144.309 113.784L114.65 155.256L88.3688 192.002C87.355 193.42 86.4241 194.872 85.5753 196.352C85.4678 196.54 85.361 196.729 85.2561 196.917C79.0645 208.041 77.4523 220.716 80.0181 232.522C80.0792 232.804 80.1428 233.084 80.2087 233.365C80.7051 235.477 81.3358 237.559 82.0986 239.597Z"/></clipPath><clipPath id="paint5_diamond_387_440_clip_path"><path fill-rule="evenodd" clip-rule="evenodd" d="M365.699 154.772L365.541 154.994C365.594 154.92 365.647 154.846 365.699 154.772Z"/></clipPath><clipPath id="paint6_diamond_387_440_clip_path"><path fill-rule="evenodd" clip-rule="evenodd" d="M310.504 231.944C310.381 232.119 310.257 232.293 310.132 232.468L339.792 190.995L339.793 190.994L365.54 154.991L365.852 154.555C366.933 153.026 367.919 151.458 368.81 149.858L369.076 150.048L369.451 149.523L369.123 149.287C375.055 138.302 376.57 125.858 374.048 114.253C373.987 113.971 373.923 113.691 373.857 113.41C373.302 111.048 372.578 108.723 371.691 106.456C370.97 104.615 370.141 102.812 369.205 101.057C368.327 99.4122 367.355 97.8084 366.291 96.2559C366.162 96.0676 366.032 95.8801 365.901 95.6935C362.693 91.1462 358.68 87.051 353.9 83.6299L327.996 119.852L327.62 120.377L320.06 130.949C326.445 145.048 329.54 160.435 329.14 175.86C328.883 185.811 327.17 195.779 323.947 205.428C320.864 214.656 316.4 223.592 310.504 231.944ZM339.792 190.995C339.721 191.095 339.649 191.195 339.577 191.293L340.004 190.696C339.933 190.797 339.863 190.896 339.792 190.995Z"/></clipPath><linearGradient id="paint0_diamond_387_440" x1="0" y1="0" x2="500" y2="500" gradientUnits="userSpaceOnUse">
<stop offset="0.735577" stop-color="#49535E"/>
<stop offset="1" stop-color="#1B9AAA"/>
</linearGradient>
<linearGradient id="paint1_diamond_387_440" x1="0" y1="0" x2="500" y2="500" gradientUnits="userSpaceOnUse">
<stop offset="0.735577" stop-color="#49535E"/>
<stop offset="1" stop-color="#1B9AAA"/>
</linearGradient>
<linearGradient id="paint2_diamond_387_440" x1="0" y1="0" x2="500" y2="500" gradientUnits="userSpaceOnUse">
<stop offset="0.735577" stop-color="#49535E"/>
<stop offset="1" stop-color="#1B9AAA"/>
</linearGradient>
<linearGradient id="paint3_diamond_387_440" x1="0" y1="0" x2="500" y2="500" gradientUnits="userSpaceOnUse">
<stop offset="0.735577" stop-color="#49535E"/>
<stop offset="1" stop-color="#1B9AAA"/>
</linearGradient>
<linearGradient id="paint4_diamond_387_440" x1="0" y1="0" x2="500" y2="500" gradientUnits="userSpaceOnUse">
<stop offset="0.735577" stop-color="#49535E"/>
<stop offset="1" stop-color="#1B9AAA"/>
</linearGradient>
<linearGradient id="paint5_diamond_387_440" x1="0" y1="0" x2="500" y2="500" gradientUnits="userSpaceOnUse">
<stop offset="0.735577" stop-color="#49535E"/>
<stop offset="1" stop-color="#1B9AAA"/>
</linearGradient>
<linearGradient id="paint6_diamond_387_440" x1="0" y1="0" x2="500" y2="500" gradientUnits="userSpaceOnUse">
<stop offset="0.735577" stop-color="#49535E"/>
<stop offset="1" stop-color="#1B9AAA"/>
</linearGradient>
</defs>
</svg>
